<svg xmlns="http://www.w3.org/2000/svg" viewBox="0 0 640 400" role="img" aria-label="Security camera watching over a park playground, low foreground angle">
  <defs>
    <linearGradient id="psky" x1="0" y1="0" x2="0" y2="1">
      <stop offset="0" stop-color="#7fc1ed"/><stop offset="1" stop-color="#dceffb"/>
    </linearGradient>
  </defs>
  <rect width="640" height="400" fill="url(#psky)"/>
  <circle cx="500" cy="64" r="34" fill="#f7d154"/>
  <ellipse cx="180" cy="70" rx="58" ry="20" fill="#fff" opacity="0.9"/>
  <ellipse cx="430" cy="110" rx="46" ry="15" fill="#fff" opacity="0.8"/>
  <rect y="150" width="640" height="250" fill="#5fae5f"/>
  <ellipse cx="320" cy="152" rx="460" ry="30" fill="#6fbd6f"/>
  <g transform="translate(330 150) scale(0.7)">
    <path d="M20 60 L46 0 L72 60" stroke="#d4a017" stroke-width="7" fill="none" stroke-linecap="round"/>
    <path d="M100 60 L74 0" stroke="#d4a017" stroke-width="7" stroke-linecap="round"/>
    <line x1="46" y1="2" x2="74" y2="2" stroke="#d4a017" stroke-width="7" stroke-linecap="round"/>
    <rect x="52" y="40" width="18" height="5" rx="2" fill="#122a4d"/>
    <path d="M150 60 L150 8 L120 60 Z" fill="#e35d5d"/>
    <rect x="142" y="2" width="16" height="40" fill="#d4a017"/>
  </g>
  <circle cx="250" cy="175" r="6" fill="#f2b880"/>
  <rect x="245" y="181" width="10" height="16" rx="4" fill="#2e7d32"/>
  <rect x="40" y="150" width="14" height="60" rx="4" fill="#7a5230"/>
  <circle cx="47" cy="135" r="40" fill="#3e8e41"/>
  <g transform="translate(120 250)">
    <rect x="-6" y="0" width="12" height="150" rx="5" fill="#3a424d"/>
    <rect x="-40" y="-12" width="60" height="12" rx="5" fill="#48515d"/>
    <g transform="translate(-44 -54) rotate(-12)">
      <rect x="-8" y="0" width="80" height="44" rx="13" fill="#2c343e" stroke="#161b21" stroke-width="3"/>
      <rect x="-8" y="0" width="80" height="17" rx="13" fill="#3a434f"/>
      <rect x="-16" y="-6" width="58" height="11" rx="5" fill="#404b57"/>
      <circle cx="66" cy="22" r="20" fill="#0d1218"/>
      <circle cx="66" cy="22" r="12" fill="#1d2733"/>
      <circle cx="71" cy="17" r="5" fill="#9fd8ff"/>
      <circle cx="0" cy="11" r="3.5" fill="#ff4d4d"/>
      <path d="M86 22 L210 -40 L210 96 Z" fill="#9fd8ff" opacity="0.13"/>
    </g>
  </g>
</svg>
